<svg width="1280" height="900" viewBox="0 0 1280 900" fill="none" xmlns="http://www.w3.org/2000/svg">
  <rect width="1280" height="900" fill="#EEF2F7"/>
  <rect x="16" y="16" width="1248" height="868" rx="28" fill="#F7F9FC" stroke="#D8E0EA"/>

  <rect x="16" y="16" width="1248" height="78" rx="28" fill="#FFFFFF"/>
  <path d="M16 66H1264" stroke="#E2E8F0"/>

  <rect x="54" y="38" width="18" height="22" rx="4" stroke="#2563EB" stroke-width="2"/>
  <path d="M67 38V48H76" stroke="#2563EB" stroke-width="2" stroke-linecap="round" stroke-linejoin="round"/>
  <text x="88" y="55" fill="#111827" font-size="18" font-family="Arial, sans-serif" font-weight="700">FileSync</text>

  <g>
    <rect x="528" y="30" width="102" height="38" rx="12" fill="#FFFFFF" stroke="#D7DEE8"/>
    <text x="562" y="54" fill="#111827" font-size="15" font-family="Arial, sans-serif" font-weight="600">Seguro</text>
  </g>
  <g>
    <rect x="634" y="30" width="88" height="38" rx="12" fill="#FFF4D6" stroke="#F0D28A"/>
    <text x="667" y="54" fill="#A16207" font-size="15" font-family="Arial, sans-serif" font-weight="700">Root</text>
  </g>
  <g>
    <rect x="736" y="30" width="98" height="38" rx="12" fill="#FFFFFF" stroke="#D7DEE8"/>
    <text x="769" y="54" fill="#111827" font-size="15" font-family="Arial, sans-serif">Colar</text>
  </g>
  <g>
    <rect x="844" y="30" width="130" height="38" rx="12" fill="#FFFFFF" stroke="#D7DEE8"/>
    <text x="873" y="54" fill="#111827" font-size="15" font-family="Arial, sans-serif">Selecionar</text>
  </g>
  <g>
    <rect x="984" y="30" width="94" height="38" rx="12" fill="#FFFFFF" stroke="#D7DEE8"/>
    <text x="1015" y="54" fill="#111827" font-size="15" font-family="Arial, sans-serif">Enviar</text>
  </g>
  <g>
    <rect x="1088" y="30" width="88" height="38" rx="12" fill="#FFFFFF" stroke="#D7DEE8"/>
    <text x="1119" y="54" fill="#111827" font-size="15" font-family="Arial, sans-serif">Pasta</text>
  </g>

  <g transform="translate(54 110)">
    <rect width="40" height="40" rx="12" fill="#FFFFFF" stroke="#D7DEE8"/>
    <path d="M24 13L18 19L24 25" stroke="#111827" stroke-width="2" stroke-linecap="round" stroke-linejoin="round"/>
  </g>

  <text x="112" y="136" fill="#64748B" font-size="17" font-family="Arial, sans-serif">/</text>
  <text x="132" y="136" fill="#94A3B8" font-size="17" font-family="Arial, sans-serif">mnt</text>
  <text x="184" y="136" fill="#64748B" font-size="17" font-family="Arial, sans-serif">/</text>
  <text x="204" y="136" fill="#0F172A" font-size="18" font-family="Arial, sans-serif" font-weight="700">us</text>

  <rect x="54" y="168" width="850" height="50" rx="14" fill="#FFFFFF" stroke="#D7DEE8"/>
  <text x="98" y="199" fill="#94A3B8" font-size="16" font-family="Arial, sans-serif">Filtrar arquivos...</text>
  <circle cx="76" cy="193" r="8" stroke="#94A3B8" stroke-width="2"/>
  <path d="M82 199L88 205" stroke="#94A3B8" stroke-width="2" stroke-linecap="round"/>

  <rect x="914" y="168" width="56" height="50" rx="14" fill="#FFFFFF" stroke="#D7DEE8"/>
  <rect x="980" y="168" width="56" height="50" rx="14" fill="#FFFFFF" stroke="#D7DEE8"/>
  <rect x="1046" y="168" width="164" height="50" rx="14" fill="#FFFFFF" stroke="#D7DEE8"/>
  <text x="1088" y="199" fill="#1F2937" font-size="16" font-family="Arial, sans-serif">Nome A-Z</text>

  <g>
    <rect x="54" y="232" width="1156" height="618" rx="24" fill="#F1F5F9" opacity="0.55"/>
  </g>

  <g transform="translate(54 232)">
    <rect x="0" y="0" width="278" height="148" rx="18" fill="#FFFFFF" stroke="#D4DCE7"/>
    <rect x="20" y="20" width="44" height="44" rx="14" fill="#FFF3C9"/>
    <path d="M33 43H52L56 47H70V56C70 59 68 61 65 61H33C30 61 28 59 28 56V48C28 45 30 43 33 43Z" stroke="#D97706" stroke-width="2" stroke-linejoin="round"/>
    <text x="82" y="34" fill="#111827" font-size="15" font-family="Arial, sans-serif" font-weight="700">amazon-cover-...</text>
    <text x="82" y="57" fill="#94A3B8" font-size="13" font-family="Arial, sans-serif">Pasta</text>
    <text x="82" y="77" fill="#94A3B8" font-size="13" font-family="Arial, sans-serif">Fev 14</text>
    <path d="M20 102H258" stroke="#E5EAF1"/>
    <rect x="208" y="112" width="30" height="24" rx="8" fill="#F8FAFC" stroke="#D7DEE8"/>
    <path d="M219 128L226 121L233 128" stroke="#64748B" stroke-width="1.8" stroke-linecap="round" stroke-linejoin="round"/>
  </g>

  <g transform="translate(346 232)">
    <rect x="0" y="0" width="278" height="148" rx="18" fill="#FFFFFF" stroke="#C8D5E6" stroke-width="2"/>
    <rect x="20" y="20" width="44" height="44" rx="14" fill="#FFF3C9"/>
    <path d="M33 43H52L56 47H70V56C70 59 68 61 65 61H33C30 61 28 59 28 56V48C28 45 30 43 33 43Z" stroke="#D97706" stroke-width="2" stroke-linejoin="round"/>
    <text x="82" y="34" fill="#111827" font-size="15" font-family="Arial, sans-serif" font-weight="700">bible</text>
    <text x="82" y="57" fill="#94A3B8" font-size="13" font-family="Arial, sans-serif">Pasta</text>
    <text x="82" y="77" fill="#94A3B8" font-size="13" font-family="Arial, sans-serif">2d</text>
    <path d="M20 102H258" stroke="#E5EAF1"/>
    <rect x="170" y="112" width="30" height="24" rx="8" fill="#F8FAFC" stroke="#D7DEE8"/>
    <path d="M179 127L186 120L193 127" stroke="#64748B" stroke-width="1.8" stroke-linecap="round" stroke-linejoin="round"/>
    <rect x="206" y="112" width="30" height="24" rx="8" fill="#F8FAFC" stroke="#D7DEE8"/>
    <path d="M216 126L226 116" stroke="#64748B" stroke-width="1.8" stroke-linecap="round"/>
    <path d="M224 116H230V122" stroke="#64748B" stroke-width="1.8" stroke-linecap="round" stroke-linejoin="round"/>
    <rect x="240" y="12" width="24" height="24" rx="12" fill="#E8F0FE"/>
  </g>

  <g transform="translate(638 232)">
    <rect x="0" y="0" width="278" height="148" rx="18" fill="#FFFFFF" stroke="#D4DCE7"/>
    <rect x="20" y="20" width="44" height="44" rx="14" fill="#FFF3C9"/>
    <path d="M33 43H52L56 47H70V56C70 59 68 61 65 61H33C30 61 28 59 28 56V48C28 45 30 43 33 43Z" stroke="#D97706" stroke-width="2" stroke-linejoin="round"/>
    <text x="82" y="34" fill="#111827" font-size="15" font-family="Arial, sans-serif" font-weight="700">books</text>
    <text x="82" y="57" fill="#94A3B8" font-size="13" font-family="Arial, sans-serif">Pasta</text>
    <text x="82" y="77" fill="#94A3B8" font-size="13" font-family="Arial, sans-serif">1d</text>
    <path d="M20 102H258" stroke="#E5EAF1"/>
    <rect x="208" y="112" width="30" height="24" rx="8" fill="#F8FAFC" stroke="#D7DEE8"/>
    <path d="M219 128L226 121L233 128" stroke="#64748B" stroke-width="1.8" stroke-linecap="round" stroke-linejoin="round"/>
  </g>

  <g transform="translate(930 232)">
    <rect x="0" y="0" width="278" height="148" rx="18" fill="#FFFFFF" stroke="#D4DCE7"/>
    <rect x="20" y="20" width="44" height="44" rx="14" fill="#FFF3C9"/>
    <path d="M33 43H52L56 47H70V56C70 59 68 61 65 61H33C30 61 28 59 28 56V48C28 45 30 43 33 43Z" stroke="#D97706" stroke-width="2" stroke-linejoin="round"/>
    <text x="82" y="34" fill="#111827" font-size="15" font-family="Arial, sans-serif" font-weight="700">documents</text>
    <text x="82" y="57" fill="#94A3B8" font-size="13" font-family="Arial, sans-serif">Pasta</text>
    <text x="82" y="77" fill="#94A3B8" font-size="13" font-family="Arial, sans-serif">1h</text>
    <path d="M20 102H258" stroke="#E5EAF1"/>
    <rect x="208" y="112" width="30" height="24" rx="8" fill="#F8FAFC" stroke="#D7DEE8"/>
    <path d="M219 128L226 121L233 128" stroke="#64748B" stroke-width="1.8" stroke-linecap="round" stroke-linejoin="round"/>
  </g>

  <g transform="translate(54 394)">
    <rect x="0" y="0" width="278" height="148" rx="18" fill="#FFFFFF" stroke="#D4DCE7"/>
    <rect x="20" y="20" width="44" height="44" rx="14" fill="#FFF3C9"/>
    <path d="M33 43H52L56 47H70V56C70 59 68 61 65 61H33C30 61 28 59 28 56V48C28 45 30 43 33 43Z" stroke="#D97706" stroke-width="2" stroke-linejoin="round"/>
    <text x="82" y="34" fill="#111827" font-size="15" font-family="Arial, sans-serif" font-weight="700">extensions</text>
    <text x="82" y="57" fill="#94A3B8" font-size="13" font-family="Arial, sans-serif">Pasta</text>
    <text x="82" y="77" fill="#94A3B8" font-size="13" font-family="Arial, sans-serif">Mar 3</text>
    <path d="M20 102H258" stroke="#E5EAF1"/>
    <rect x="208" y="112" width="30" height="24" rx="8" fill="#F8FAFC" stroke="#D7DEE8"/>
    <path d="M219 128L226 121L233 128" stroke="#64748B" stroke-width="1.8" stroke-linecap="round" stroke-linejoin="round"/>
  </g>

  <g transform="translate(346 394)">
    <rect x="0" y="0" width="278" height="148" rx="18" fill="#FFFFFF" stroke="#D4DCE7"/>
    <rect x="20" y="20" width="44" height="44" rx="14" fill="#FFF3C9"/>
    <path d="M33 43H52L56 47H70V56C70 59 68 61 65 61H33C30 61 28 59 28 56V48C28 45 30 43 33 43Z" stroke="#D97706" stroke-width="2" stroke-linejoin="round"/>
    <text x="82" y="34" fill="#111827" font-size="15" font-family="Arial, sans-serif" font-weight="700">fonts</text>
    <text x="82" y="57" fill="#94A3B8" font-size="13" font-family="Arial, sans-serif">Pasta</text>
    <text x="82" y="77" fill="#94A3B8" font-size="13" font-family="Arial, sans-serif">Jul 17, 2024</text>
    <path d="M20 102H258" stroke="#E5EAF1"/>
    <rect x="208" y="112" width="30" height="24" rx="8" fill="#F8FAFC" stroke="#D7DEE8"/>
    <path d="M219 128L226 121L233 128" stroke="#64748B" stroke-width="1.8" stroke-linecap="round" stroke-linejoin="round"/>
  </g>

  <g transform="translate(638 394)">
    <rect x="0" y="0" width="278" height="148" rx="18" fill="#FFFFFF" stroke="#D4DCE7"/>
    <rect x="20" y="20" width="44" height="44" rx="14" fill="#FFF3C9"/>
    <path d="M33 43H52L56 47H70V56C70 59 68 61 65 61H33C30 61 28 59 28 56V48C28 45 30 43 33 43Z" stroke="#D97706" stroke-width="2" stroke-linejoin="round"/>
    <text x="82" y="34" fill="#111827" font-size="15" font-family="Arial, sans-serif" font-weight="700">koreader</text>
    <text x="82" y="57" fill="#94A3B8" font-size="13" font-family="Arial, sans-serif">Pasta</text>
    <text x="82" y="77" fill="#94A3B8" font-size="13" font-family="Arial, sans-serif">Agora</text>
    <path d="M20 102H258" stroke="#E5EAF1"/>
    <rect x="208" y="112" width="30" height="24" rx="8" fill="#F8FAFC" stroke="#D7DEE8"/>
    <path d="M219 128L226 121L233 128" stroke="#64748B" stroke-width="1.8" stroke-linecap="round" stroke-linejoin="round"/>
  </g>

  <g transform="translate(930 394)">
    <rect x="0" y="0" width="278" height="148" rx="18" fill="#FFFFFF" stroke="#D4DCE7"/>
    <rect x="20" y="20" width="44" height="44" rx="14" fill="#FFF3C9"/>
    <path d="M33 43H52L56 47H70V56C70 59 68 61 65 61H33C30 61 28 59 28 56V48C28 45 30 43 33 43Z" stroke="#D97706" stroke-width="2" stroke-linejoin="round"/>
    <text x="82" y="34" fill="#111827" font-size="15" font-family="Arial, sans-serif" font-weight="700">libkh</text>
    <text x="82" y="57" fill="#94A3B8" font-size="13" font-family="Arial, sans-serif">Pasta</text>
    <text x="82" y="77" fill="#94A3B8" font-size="13" font-family="Arial, sans-serif">Mar 1</text>
    <path d="M20 102H258" stroke="#E5EAF1"/>
    <rect x="208" y="112" width="30" height="24" rx="8" fill="#F8FAFC" stroke="#D7DEE8"/>
    <path d="M219 128L226 121L233 128" stroke="#64748B" stroke-width="1.8" stroke-linecap="round" stroke-linejoin="round"/>
  </g>

  <g transform="translate(54 556)">
    <rect x="0" y="0" width="278" height="148" rx="18" fill="#FFFFFF" stroke="#D4DCE7"/>
    <rect x="20" y="20" width="44" height="44" rx="14" fill="#FFF3C9"/>
    <path d="M33 43H52L56 47H70V56C70 59 68 61 65 61H33C30 61 28 59 28 56V48C28 45 30 43 33 43Z" stroke="#D97706" stroke-width="2" stroke-linejoin="round"/>
    <text x="82" y="34" fill="#111827" font-size="15" font-family="Arial, sans-serif" font-weight="700">wallpapers</text>
    <text x="82" y="57" fill="#94A3B8" font-size="13" font-family="Arial, sans-serif">Pasta</text>
    <text x="82" y="77" fill="#94A3B8" font-size="13" font-family="Arial, sans-serif">Mar 3</text>
    <path d="M20 102H258" stroke="#E5EAF1"/>
    <rect x="208" y="112" width="30" height="24" rx="8" fill="#F8FAFC" stroke="#D7DEE8"/>
    <path d="M219 128L226 121L233 128" stroke="#64748B" stroke-width="1.8" stroke-linecap="round" stroke-linejoin="round"/>
  </g>

  <g transform="translate(346 556)">
    <rect x="0" y="0" width="278" height="148" rx="18" fill="#FFFFFF" stroke="#D4DCE7"/>
    <rect x="20" y="20" width="44" height="44" rx="14" fill="#EEF2F7"/>
    <path d="M36 29H51L60 38V58H36V29Z" stroke="#64748B" stroke-width="2" stroke-linejoin="round"/>
    <path d="M51 29V39H60" stroke="#64748B" stroke-width="2" stroke-linejoin="round"/>
    <text x="82" y="34" fill="#111827" font-size="15" font-family="Arial, sans-serif" font-weight="700">driveinfo.calibre</text>
    <text x="82" y="57" fill="#94A3B8" font-size="13" font-family="Arial, sans-serif">CALIBRE</text>
    <text x="82" y="77" fill="#94A3B8" font-size="13" font-family="Arial, sans-serif">306 B  ·  Mar 5</text>
    <path d="M20 102H258" stroke="#E5EAF1"/>
    <rect x="170" y="112" width="30" height="24" rx="8" fill="#F8FAFC" stroke="#D7DEE8"/>
    <path d="M178 127H192" stroke="#64748B" stroke-width="1.8" stroke-linecap="round"/>
    <path d="M185 120V134" stroke="#64748B" stroke-width="1.8" stroke-linecap="round"/>
    <rect x="206" y="112" width="30" height="24" rx="8" fill="#F8FAFC" stroke="#D7DEE8"/>
    <path d="M216 126L226 116" stroke="#64748B" stroke-width="1.8" stroke-linecap="round"/>
    <path d="M224 116H230V122" stroke="#64748B" stroke-width="1.8" stroke-linecap="round" stroke-linejoin="round"/>
    <path d="M252 118L260 124L252 130" stroke="#94A3B8" stroke-width="1.8" stroke-linecap="round" stroke-linejoin="round"/>
  </g>

  <g transform="translate(638 556)">
    <rect x="0" y="0" width="278" height="148" rx="18" fill="#FFFFFF" stroke="#D4DCE7"/>
    <rect x="20" y="20" width="44" height="44" rx="14" fill="#EFE7FF"/>
    <rect x="33" y="33" width="18" height="18" rx="4" stroke="#7C3AED" stroke-width="2"/>
    <path d="M36 42H48" stroke="#7C3AED" stroke-width="2" stroke-linecap="round"/>
    <path d="M42 39L39 42L42 45" stroke="#7C3AED" stroke-width="2" stroke-linecap="round" stroke-linejoin="round"/>
    <text x="82" y="34" fill="#111827" font-size="15" font-family="Arial, sans-serif" font-weight="700">Filler.sh</text>
    <text x="82" y="57" fill="#94A3B8" font-size="13" font-family="Arial, sans-serif">SH</text>
    <text x="82" y="77" fill="#94A3B8" font-size="13" font-family="Arial, sans-serif">3.6 KB  ·  Fev 5</text>
    <path d="M20 102H258" stroke="#E5EAF1"/>
    <rect x="170" y="112" width="30" height="24" rx="8" fill="#F8FAFC" stroke="#D7DEE8"/>
    <path d="M178 127H192" stroke="#64748B" stroke-width="1.8" stroke-linecap="round"/>
    <path d="M185 120V134" stroke="#64748B" stroke-width="1.8" stroke-linecap="round"/>
    <rect x="206" y="112" width="30" height="24" rx="8" fill="#F8FAFC" stroke="#D7DEE8"/>
    <path d="M216 126L226 116" stroke="#64748B" stroke-width="1.8" stroke-linecap="round"/>
    <path d="M224 116H230V122" stroke="#64748B" stroke-width="1.8" stroke-linecap="round" stroke-linejoin="round"/>
    <path d="M252 118L260 124L252 130" stroke="#94A3B8" stroke-width="1.8" stroke-linecap="round" stroke-linejoin="round"/>
  </g>

  <g transform="translate(930 556)">
    <rect x="0" y="0" width="278" height="148" rx="18" fill="#FFFFFF" stroke="#D4DCE7"/>
    <rect x="20" y="20" width="44" height="44" rx="14" fill="#EEF2F7"/>
    <path d="M36 29H51L60 38V58H36V29Z" stroke="#64748B" stroke-width="2" stroke-linejoin="round"/>
    <path d="M51 29V39H60" stroke="#64748B" stroke-width="2" stroke-linejoin="round"/>
    <text x="82" y="34" fill="#111827" font-size="15" font-family="Arial, sans-serif" font-weight="700">jb</text>
    <text x="82" y="57" fill="#94A3B8" font-size="13" font-family="Arial, sans-serif">Desconhecido</text>
    <text x="82" y="77" fill="#94A3B8" font-size="13" font-family="Arial, sans-serif">8.6 KB  ·  Set 6, 2025</text>
    <path d="M20 102H258" stroke="#E5EAF1"/>
    <rect x="170" y="112" width="30" height="24" rx="8" fill="#F8FAFC" stroke="#D7DEE8"/>
    <path d="M178 127H192" stroke="#64748B" stroke-width="1.8" stroke-linecap="round"/>
    <path d="M185 120V134" stroke="#64748B" stroke-width="1.8" stroke-linecap="round"/>
    <rect x="206" y="112" width="30" height="24" rx="8" fill="#F8FAFC" stroke="#D7DEE8"/>
    <path d="M216 126L226 116" stroke="#64748B" stroke-width="1.8" stroke-linecap="round"/>
    <path d="M224 116H230V122" stroke="#64748B" stroke-width="1.8" stroke-linecap="round" stroke-linejoin="round"/>
    <path d="M252 118L260 124L252 130" stroke="#94A3B8" stroke-width="1.8" stroke-linecap="round" stroke-linejoin="round"/>
  </g>
</svg>
